# xmcd
#
# Track frame offsets: 
#        182
#        13402
#        27052
#        40840
#        58065
#        74175
#        91612
#        109880
#        117142
#        129905
#        146025
#        161735
#
# Disc length: 2351 seconds
#
# Revision: 2
# Processed by: cddbd v1.5.2PL0 Copyright (c) Steve Scherf et al.
# Submitted via: ExactAudioCopy v0.99pb3
#
DISCID=a7092d0c
DTITLE=Various Artist - Memorias Sertanejas Vol 19
DYEAR=1996
DGENRE=Sertanejo
TTITLE0=Tonico e Tinoco - Cana Verde
TTITLE1=Tiao Carreiro e Carreirinho - A Coisa Ficou Bonita
TTITLE2=Milionario e Jose Rico - Va Pro Inferno Com Seu Amor
TTITLE3=Matogrosso e Mathias - Vinte e Quatro Horas de Amor
TTITLE4=Nalva Aguiar - Peito de Aco
TTITLE5=Cezar e Paulinho - Viajante Solitario 
TTITLE6=Bia e Dino Franco - A Sementinha
TTITLE7=Cascatinha e Inhana - Saudade Coisinha a Toa
TTITLE8=Leoncio e Leonel - Bom de Bico
TTITLE9=Ze Carreiro e Carreirinho - Despedida de Solteiro
TTITLE10=Liu e Leu - Adeus Minha Terra
TTITLE11=Carlito, Baduy e Nhozinho - Nos Bracos da Morena
EXTD=
EXTT0=
EXTT1=
EXTT2=
EXTT3=
EXTT4=
EXTT5=
EXTT6=
EXTT7=
EXTT8=
EXTT9=
EXTT10=
EXTT11=
PLAYORDER=
